<svg width="79" height="79" viewBox="0 0 79 79" fill="none" xmlns="http://www.w3.org/2000/svg">
<path d="M59.3852 4.95102C62.2964 4.8226 65.967 4.8762 68.4562 6.6693C72.9631 9.91599 72.3307 15.5912 71.908 20.4473C71.8069 21.6095 71.2991 23.1193 71.0008 24.2697C69.0683 31.7226 64.4731 38.2003 59.1991 43.6862C58.4153 44.5009 57.6288 44.9466 56.9423 45.9372C57.3222 51.8194 56.0642 58.3219 52.707 63.2231C51.8726 64.4413 50.6354 66.1515 49.4752 67.0463C47.0251 68.9359 43.7662 71.9032 40.6419 69.8272C39.8871 69.3203 39.2897 68.612 38.9173 67.7826C38.3418 66.4745 37.9325 61.833 37.6651 60.1798C37.5504 59.4707 37.5827 58.3849 37.4017 57.5115C36.5766 56.7151 35.6587 55.9607 34.9234 55.0974C33.9941 54.0773 32.1804 52.3625 31.1508 51.353L26.0207 46.2278L21.5365 41.7233C19.9234 40.1006 19.7847 39.4978 17.3199 39.3783C16.1967 39.3238 14.6557 38.8907 13.5253 38.8492C10.2607 38.7294 6.43914 37.972 6.55149 33.8301C6.69513 31.2329 9.62481 27.807 11.5893 26.0808C17.0607 21.2734 24.0489 19.7953 31.1852 20.2604C31.2695 20.1573 31.3551 20.0551 31.442 19.9541C38.3549 11.906 48.7068 5.76174 59.3852 4.95102ZM22.5701 37.8781C23.7534 39.1957 25.4284 40.774 26.71 42.0564L35.3337 50.6824C36.275 51.616 38.4915 53.7115 39.2253 54.6712L39.279 54.6219C40.1825 53.8019 41.5083 53.1723 42.534 52.4854C46.4948 49.8297 50.4555 47.0677 54.0196 43.8879C61.7119 37.0248 68.1848 27.8155 68.7973 17.2219C69.1105 11.8041 67.9785 8.49199 62.0485 8.18763C61.4333 8.15465 60.8168 8.15212 60.2014 8.17986C49.7105 8.76754 40.5073 14.9737 33.5859 22.555C30.4711 25.9664 27.6192 30.0104 25.0366 33.834C24.3712 34.8193 23.0086 36.8399 22.5701 37.8781ZM12.5102 35.3528C14.9773 35.692 17.1614 36.0049 19.645 36.2353C19.9449 35.6317 20.307 34.8262 20.6803 34.2718C22.717 31.2469 24.6469 28.1345 26.9658 25.3114C27.475 24.6913 27.9686 23.9526 28.5826 23.4629C28.095 23.5027 27.4032 23.5789 26.9343 23.5507C20.8142 24.0569 16.0713 26.006 11.9916 30.7463C11.1055 31.7759 10.3468 32.918 9.83725 34.1888C10.4965 35.4543 11.2415 35.1219 12.5102 35.3528ZM40.8628 57.4671C40.903 58.0781 41.039 59.1342 41.1125 59.7602C41.276 61.1523 41.5886 65.0512 42.0071 66.2736C42.6888 68.1096 44.1933 66.6562 45.2298 65.91C51.0888 61.6922 53.2318 55.7767 53.5212 48.8176L53.4262 48.7093C52.272 49.8982 48.8264 52.3026 47.4151 53.2576C45.7233 54.4023 42.6384 56.6231 40.8628 57.4671Z" fill="#3837E0"/>
<path d="M60.2014 8.17921C60.8168 8.15146 61.4332 8.154 62.0485 8.18697C67.9785 8.49134 69.1104 11.8034 68.7972 17.2212C68.1847 27.8148 61.7118 37.0242 54.0195 43.8872C50.4555 47.0671 46.4947 49.8291 42.534 52.4848C41.5083 53.1717 40.1825 53.8012 39.2789 54.6213L39.2252 54.6705C38.4915 53.7108 36.2749 51.6153 35.3336 50.6818L26.7099 42.0557C25.4284 40.7733 23.7533 39.195 22.5701 37.8774C23.0086 36.8393 24.3711 34.8186 25.0366 33.8333C27.6191 30.0099 30.471 25.9661 33.5859 22.5544C40.5072 14.9731 49.7105 8.76688 60.2014 8.17921ZM51.5366 34.3944C56.0621 33.9976 59.4049 30.0008 58.9954 25.4764C58.5859 20.952 54.5798 17.6202 50.0565 18.0427C45.5512 18.4633 42.2357 22.4501 42.6437 26.9565C43.0516 31.463 47.0291 34.7897 51.5366 34.3944Z" fill="#3837E0" fill-opacity="0.513725"/>
<path d="M50.0565 18.0439C54.5797 17.6216 58.5858 20.9532 58.9953 25.4776C59.4048 30.002 56.062 33.9988 51.5366 34.3956C47.029 34.7909 43.0515 31.4642 42.6436 26.9577C42.2357 22.4512 45.5511 18.4645 50.0565 18.0439ZM46.353 24.2672C46.2838 24.4252 46.2228 24.5867 46.1705 24.751C45.3667 27.2793 46.7232 29.9879 49.2295 30.8583C51.7357 31.7287 54.4792 30.4441 55.4155 27.9618C56.3518 25.4794 55.1401 22.703 52.6833 21.7015C50.2265 20.6999 47.4191 21.8378 46.353 24.2672Z" fill="#3837E0"/>
<path d="M46.353 24.267C47.4191 21.8376 50.2265 20.6997 52.6833 21.7013C55.1401 22.7027 56.3518 25.4792 55.4155 27.9615C54.4791 30.4439 51.7357 31.7285 49.2295 30.8581C46.7232 29.9877 45.3666 27.2791 46.1705 24.7508C46.2371 24.9564 46.1911 24.9153 46.3367 25.0297L46.4069 24.9348C46.4594 24.6239 46.4908 24.5456 46.353 24.267Z" fill="#3837E0" fill-opacity="0.52549"/>
<path d="M46.3531 24.2676C46.4909 24.5461 46.4596 24.6244 46.407 24.9353L46.3368 25.0303C46.1913 24.9159 46.2372 24.9569 46.1707 24.7513C46.2229 24.587 46.2839 24.4255 46.3531 24.2676Z" fill="#3837E0" fill-opacity="0.498039"/>
<path d="M26.0448 57.2734C26.8127 57.3336 27.0459 57.4642 27.6172 57.9536C27.6558 58.0483 27.6916 58.1441 27.7246 58.241C28.0897 59.3212 27.9237 59.7706 27.1508 60.5574C25.9015 61.8293 24.6321 63.0786 23.3653 64.3328L18.4075 69.2908L16.0003 71.7117C15.1137 72.6163 14.5804 73.3869 13.3374 73.7997C12.5144 73.8154 11.7668 73.5377 11.5051 72.6937C11.0629 71.2679 12.7191 70.0045 13.6106 69.111L17.1153 65.607L21.872 60.8535C22.8016 59.9251 24.9334 57.559 26.0448 57.2734Z" fill="#3837E0"/>
<path d="M17.7061 49.2003C18.593 49.158 18.7779 49.3009 19.4397 49.8461C19.6772 50.4435 19.8545 51.1434 19.4383 51.6978C18.5297 52.9079 17.3612 54.0056 16.2658 55.041C15.462 55.8006 14.5042 57.1581 13.3999 57.403C13.0624 57.416 12.659 57.401 12.3417 57.2794C11.9992 57.1482 11.6956 56.8432 11.5529 56.508C11.3575 56.0489 11.4097 55.5449 11.6027 55.0946C11.997 54.1747 15.934 50.3329 16.8809 49.6185C17.1261 49.4334 17.4235 49.3162 17.7061 49.2003Z" fill="#3837E0"/>
</svg>
